<mxfile host="app.diagrams.net" modified="2024-05-16T22:20:11.829Z" agent="Mozilla/5.0 (Windows NT 10.0; Win64; x64) AppleWebKit/537.36 (KHTML, like Gecko) Chrome/124.0.0.0 Safari/537.36" etag="81Oh0UWYw2SV9fkOk1Tn" version="24.4.3" type="device">
  <diagram name="Pagina-1" id="3YFy38dmXNItbMqRb6Zn">
    <mxGraphModel dx="2117" dy="556" grid="1" gridSize="10" guides="1" tooltips="1" connect="1" arrows="1" fold="1" page="1" pageScale="1" pageWidth="827" pageHeight="1169" math="0" shadow="0">
      <root>
        <mxCell id="0" />
        <mxCell id="1" parent="0" />
        <mxCell id="KUTLTkhm2MNxmy57nCtg-4" value="ShowPreviousImages" style="text;html=1;align=center;verticalAlign=middle;resizable=0;points=[];autosize=1;strokeColor=none;fillColor=none;" parent="1" vertex="1">
          <mxGeometry x="13" y="20" width="140" height="30" as="geometry" />
        </mxCell>
        <mxCell id="KUTLTkhm2MNxmy57nCtg-5" value="&lt;div&gt;Get&lt;/div&gt;&lt;div&gt;/ShowPreviousImages&lt;/div&gt;&lt;div&gt;?albumId=albumId&lt;/div&gt;&lt;div&gt;&lt;span style=&quot;background-color: initial;&quot;&gt;?pageNumber=pageNumber&lt;/span&gt;&lt;/div&gt;&lt;div&gt;From: Album.html&lt;/div&gt;&lt;div&gt;&lt;br&gt;&lt;/div&gt;" style="text;html=1;align=center;verticalAlign=middle;resizable=0;points=[];autosize=1;strokeColor=none;fillColor=none;" parent="1" vertex="1">
          <mxGeometry x="-20" y="157.5" width="180" height="100" as="geometry" />
        </mxCell>
        <mxCell id="U7Al7Ej8v4SYEz0BeAcE-1" value="&lt;span style=&quot;text-wrap: nowrap;&quot;&gt;ShowPreviousImages&lt;/span&gt;" style="shape=umlLifeline;perimeter=lifelinePerimeter;whiteSpace=wrap;html=1;container=0;dropTarget=0;collapsible=0;recursiveResize=0;outlineConnect=0;portConstraint=eastwest;newEdgeStyle={&quot;edgeStyle&quot;:&quot;elbowEdgeStyle&quot;,&quot;elbow&quot;:&quot;vertical&quot;,&quot;curved&quot;:0,&quot;rounded&quot;:0};" vertex="1" parent="1">
          <mxGeometry x="93" y="59" width="155" height="411" as="geometry" />
        </mxCell>
        <mxCell id="U7Al7Ej8v4SYEz0BeAcE-2" value="" style="html=1;points=[];perimeter=orthogonalPerimeter;outlineConnect=0;targetShapes=umlLifeline;portConstraint=eastwest;newEdgeStyle={&quot;edgeStyle&quot;:&quot;elbowEdgeStyle&quot;,&quot;elbow&quot;:&quot;vertical&quot;,&quot;curved&quot;:0,&quot;rounded&quot;:0};" vertex="1" parent="U7Al7Ej8v4SYEz0BeAcE-1">
          <mxGeometry x="72.5" y="60" width="10" height="340" as="geometry" />
        </mxCell>
        <mxCell id="U7Al7Ej8v4SYEz0BeAcE-3" value="DoGet" style="html=1;verticalAlign=bottom;startArrow=circle;startFill=1;endArrow=open;startSize=6;endSize=8;curved=0;rounded=0;" edge="1" parent="1">
          <mxGeometry width="80" relative="1" as="geometry">
            <mxPoint x="85" y="130" as="sourcePoint" />
            <mxPoint x="165" y="130" as="targetPoint" />
            <mxPoint as="offset" />
          </mxGeometry>
        </mxCell>
        <mxCell id="U7Al7Ej8v4SYEz0BeAcE-4" value="" style="endArrow=classic;html=1;rounded=0;" edge="1" parent="1" target="U7Al7Ej8v4SYEz0BeAcE-8">
          <mxGeometry width="50" height="50" relative="1" as="geometry">
            <mxPoint x="175" y="410" as="sourcePoint" />
            <mxPoint x="595" y="410" as="targetPoint" />
          </mxGeometry>
        </mxCell>
        <mxCell id="U7Al7Ej8v4SYEz0BeAcE-5" value="TemplateEngine" style="shape=umlLifeline;perimeter=lifelinePerimeter;whiteSpace=wrap;html=1;container=0;dropTarget=0;collapsible=0;recursiveResize=0;outlineConnect=0;portConstraint=eastwest;newEdgeStyle={&quot;edgeStyle&quot;:&quot;elbowEdgeStyle&quot;,&quot;elbow&quot;:&quot;vertical&quot;,&quot;curved&quot;:0,&quot;rounded&quot;:0};" vertex="1" parent="1">
          <mxGeometry x="739" y="59" width="119" height="411" as="geometry" />
        </mxCell>
        <mxCell id="U7Al7Ej8v4SYEz0BeAcE-6" value="" style="html=1;points=[];perimeter=orthogonalPerimeter;outlineConnect=0;targetShapes=umlLifeline;portConstraint=eastwest;newEdgeStyle={&quot;edgeStyle&quot;:&quot;elbowEdgeStyle&quot;,&quot;elbow&quot;:&quot;vertical&quot;,&quot;curved&quot;:0,&quot;rounded&quot;:0};" vertex="1" parent="U7Al7Ej8v4SYEz0BeAcE-5">
          <mxGeometry x="54" y="379" width="10" height="20" as="geometry" />
        </mxCell>
        <mxCell id="U7Al7Ej8v4SYEz0BeAcE-7" value="ctx" style="shape=umlLifeline;perimeter=lifelinePerimeter;whiteSpace=wrap;html=1;container=0;dropTarget=0;collapsible=0;recursiveResize=0;outlineConnect=0;portConstraint=eastwest;newEdgeStyle={&quot;edgeStyle&quot;:&quot;elbowEdgeStyle&quot;,&quot;elbow&quot;:&quot;vertical&quot;,&quot;curved&quot;:0,&quot;rounded&quot;:0};" vertex="1" parent="1">
          <mxGeometry x="669" y="59" width="50" height="411" as="geometry" />
        </mxCell>
        <mxCell id="U7Al7Ej8v4SYEz0BeAcE-8" value="" style="html=1;points=[];perimeter=orthogonalPerimeter;outlineConnect=0;targetShapes=umlLifeline;portConstraint=eastwest;newEdgeStyle={&quot;edgeStyle&quot;:&quot;elbowEdgeStyle&quot;,&quot;elbow&quot;:&quot;vertical&quot;,&quot;curved&quot;:0,&quot;rounded&quot;:0};" vertex="1" parent="U7Al7Ej8v4SYEz0BeAcE-7">
          <mxGeometry x="20" y="274" width="10" height="103" as="geometry" />
        </mxCell>
        <mxCell id="U7Al7Ej8v4SYEz0BeAcE-9" value="" style="endArrow=classic;html=1;rounded=0;" edge="1" parent="1" target="U7Al7Ej8v4SYEz0BeAcE-6">
          <mxGeometry width="50" height="50" relative="1" as="geometry">
            <mxPoint x="175" y="449" as="sourcePoint" />
            <mxPoint x="699" y="449" as="targetPoint" />
          </mxGeometry>
        </mxCell>
        <mxCell id="U7Al7Ej8v4SYEz0BeAcE-10" value="process(ctx, &quot;Album.html&quot;)" style="text;html=1;align=center;verticalAlign=middle;resizable=0;points=[];autosize=1;strokeColor=none;fillColor=none;" vertex="1" parent="1">
          <mxGeometry x="268" y="426" width="160" height="30" as="geometry" />
        </mxCell>
        <mxCell id="U7Al7Ej8v4SYEz0BeAcE-11" value="ImageDAO" style="shape=umlLifeline;perimeter=lifelinePerimeter;whiteSpace=wrap;html=1;container=0;dropTarget=0;collapsible=0;recursiveResize=0;outlineConnect=0;portConstraint=eastwest;newEdgeStyle={&quot;edgeStyle&quot;:&quot;elbowEdgeStyle&quot;,&quot;elbow&quot;:&quot;vertical&quot;,&quot;curved&quot;:0,&quot;rounded&quot;:0};" vertex="1" parent="1">
          <mxGeometry x="435" y="59" width="100" height="411" as="geometry" />
        </mxCell>
        <mxCell id="U7Al7Ej8v4SYEz0BeAcE-12" value="" style="html=1;points=[];perimeter=orthogonalPerimeter;outlineConnect=0;targetShapes=umlLifeline;portConstraint=eastwest;newEdgeStyle={&quot;edgeStyle&quot;:&quot;elbowEdgeStyle&quot;,&quot;elbow&quot;:&quot;vertical&quot;,&quot;curved&quot;:0,&quot;rounded&quot;:0};" vertex="1" parent="U7Al7Ej8v4SYEz0BeAcE-11">
          <mxGeometry x="45" y="170" width="10" height="60" as="geometry" />
        </mxCell>
        <mxCell id="U7Al7Ej8v4SYEz0BeAcE-13" value="" style="endArrow=classic;html=1;rounded=0;exitX=1.02;exitY=0.085;exitDx=0;exitDy=0;exitPerimeter=0;" edge="1" parent="1" target="U7Al7Ej8v4SYEz0BeAcE-12">
          <mxGeometry width="50" height="50" relative="1" as="geometry">
            <mxPoint x="174.99999999999986" y="238.00000000000006" as="sourcePoint" />
            <mxPoint x="460" y="238" as="targetPoint" />
          </mxGeometry>
        </mxCell>
        <mxCell id="U7Al7Ej8v4SYEz0BeAcE-14" value="&lt;font style=&quot;font-size: 11px;&quot;&gt;new ImageDAO()&lt;/font&gt;" style="text;html=1;align=center;verticalAlign=middle;resizable=0;points=[];autosize=1;strokeColor=none;fillColor=none;" vertex="1" parent="1">
          <mxGeometry x="290" y="211" width="110" height="30" as="geometry" />
        </mxCell>
        <mxCell id="U7Al7Ej8v4SYEz0BeAcE-15" value="" style="endArrow=classic;html=1;rounded=0;exitX=1.02;exitY=0.085;exitDx=0;exitDy=0;exitPerimeter=0;" edge="1" parent="1" target="U7Al7Ej8v4SYEz0BeAcE-12">
          <mxGeometry width="50" height="50" relative="1" as="geometry">
            <mxPoint x="174.99999999999986" y="258.00000000000006" as="sourcePoint" />
            <mxPoint x="460" y="258" as="targetPoint" />
          </mxGeometry>
        </mxCell>
        <mxCell id="U7Al7Ej8v4SYEz0BeAcE-16" value="findImagesForAlbum(albumId)" style="text;html=1;align=center;verticalAlign=middle;resizable=0;points=[];autosize=1;strokeColor=none;fillColor=none;" vertex="1" parent="1">
          <mxGeometry x="255" y="234" width="180" height="30" as="geometry" />
        </mxCell>
        <mxCell id="U7Al7Ej8v4SYEz0BeAcE-17" value="images" style="html=1;verticalAlign=bottom;endArrow=open;dashed=1;endSize=8;edgeStyle=elbowEdgeStyle;elbow=vertical;curved=0;rounded=0;" edge="1" parent="1">
          <mxGeometry x="0.4558" relative="1" as="geometry">
            <mxPoint x="175.5" y="278" as="targetPoint" />
            <Array as="points">
              <mxPoint x="455" y="278" />
            </Array>
            <mxPoint x="480" y="278" as="sourcePoint" />
            <mxPoint as="offset" />
          </mxGeometry>
        </mxCell>
        <mxCell id="U7Al7Ej8v4SYEz0BeAcE-18" value="" style="endArrow=classic;html=1;rounded=0;" edge="1" parent="1" target="U7Al7Ej8v4SYEz0BeAcE-8">
          <mxGeometry width="50" height="50" relative="1" as="geometry">
            <mxPoint x="175" y="347" as="sourcePoint" />
            <mxPoint x="595" y="347" as="targetPoint" />
          </mxGeometry>
        </mxCell>
        <mxCell id="U7Al7Ej8v4SYEz0BeAcE-19" value="" style="endArrow=classic;html=1;rounded=0;" edge="1" parent="1" target="U7Al7Ej8v4SYEz0BeAcE-8">
          <mxGeometry width="50" height="50" relative="1" as="geometry">
            <mxPoint x="175" y="367" as="sourcePoint" />
            <mxPoint x="595" y="367" as="targetPoint" />
          </mxGeometry>
        </mxCell>
        <mxCell id="U7Al7Ej8v4SYEz0BeAcE-20" value="" style="endArrow=classic;html=1;rounded=0;" edge="1" parent="1" target="U7Al7Ej8v4SYEz0BeAcE-8">
          <mxGeometry width="50" height="50" relative="1" as="geometry">
            <mxPoint x="175" y="389" as="sourcePoint" />
            <mxPoint x="595" y="389" as="targetPoint" />
          </mxGeometry>
        </mxCell>
        <mxCell id="U7Al7Ej8v4SYEz0BeAcE-21" value="&lt;font style=&quot;font-size: 10px;&quot;&gt;setVariable(images)&lt;/font&gt;" style="text;html=1;align=center;verticalAlign=middle;resizable=0;points=[];autosize=1;strokeColor=none;fillColor=none;" vertex="1" parent="1">
          <mxGeometry x="275" y="324" width="110" height="30" as="geometry" />
        </mxCell>
        <mxCell id="U7Al7Ej8v4SYEz0BeAcE-22" value="&lt;font style=&quot;font-size: 10px;&quot;&gt;setVariable(hasPrevious)&lt;/font&gt;" style="text;html=1;align=center;verticalAlign=middle;resizable=0;points=[];autosize=1;strokeColor=none;fillColor=none;" vertex="1" parent="1">
          <mxGeometry x="265" y="344" width="130" height="30" as="geometry" />
        </mxCell>
        <mxCell id="U7Al7Ej8v4SYEz0BeAcE-23" value="&lt;font style=&quot;font-size: 10px;&quot;&gt;setVariable(hasNext)&lt;/font&gt;" style="text;html=1;align=center;verticalAlign=middle;resizable=0;points=[];autosize=1;strokeColor=none;fillColor=none;" vertex="1" parent="1">
          <mxGeometry x="270" y="364" width="120" height="30" as="geometry" />
        </mxCell>
        <mxCell id="U7Al7Ej8v4SYEz0BeAcE-24" value="&lt;font style=&quot;font-size: 10px;&quot;&gt;setVariable(albumId)&lt;/font&gt;" style="text;html=1;align=center;verticalAlign=middle;resizable=0;points=[];autosize=1;strokeColor=none;fillColor=none;" vertex="1" parent="1">
          <mxGeometry x="270" y="384" width="120" height="30" as="geometry" />
        </mxCell>
        <mxCell id="U7Al7Ej8v4SYEz0BeAcE-25" value="" style="endArrow=classic;html=1;rounded=0;" edge="1" parent="1" target="U7Al7Ej8v4SYEz0BeAcE-8">
          <mxGeometry width="50" height="50" relative="1" as="geometry">
            <mxPoint x="176" y="429.5" as="sourcePoint" />
            <mxPoint x="596" y="429.5" as="targetPoint" />
          </mxGeometry>
        </mxCell>
        <mxCell id="U7Al7Ej8v4SYEz0BeAcE-26" value="&lt;font style=&quot;font-size: 10px;&quot;&gt;setVariable(pageNumber)&lt;/font&gt;" style="text;html=1;align=center;verticalAlign=middle;resizable=0;points=[];autosize=1;strokeColor=none;fillColor=none;" vertex="1" parent="1">
          <mxGeometry x="270" y="406" width="140" height="30" as="geometry" />
        </mxCell>
        <mxCell id="U7Al7Ej8v4SYEz0BeAcE-27" value="ErrorHandler" style="shape=umlLifeline;perimeter=lifelinePerimeter;whiteSpace=wrap;html=1;container=0;dropTarget=0;collapsible=0;recursiveResize=0;outlineConnect=0;portConstraint=eastwest;newEdgeStyle={&quot;edgeStyle&quot;:&quot;elbowEdgeStyle&quot;,&quot;elbow&quot;:&quot;vertical&quot;,&quot;curved&quot;:0,&quot;rounded&quot;:0};" vertex="1" parent="1">
          <mxGeometry x="550" y="59" width="100" height="401" as="geometry" />
        </mxCell>
        <mxCell id="U7Al7Ej8v4SYEz0BeAcE-28" value="" style="html=1;points=[];perimeter=orthogonalPerimeter;outlineConnect=0;targetShapes=umlLifeline;portConstraint=eastwest;newEdgeStyle={&quot;edgeStyle&quot;:&quot;elbowEdgeStyle&quot;,&quot;elbow&quot;:&quot;vertical&quot;,&quot;curved&quot;:0,&quot;rounded&quot;:0};" vertex="1" parent="U7Al7Ej8v4SYEz0BeAcE-27">
          <mxGeometry x="45" y="77" width="10" height="203" as="geometry" />
        </mxCell>
        <mxCell id="U7Al7Ej8v4SYEz0BeAcE-29" value="" style="endArrow=classic;html=1;rounded=0;" edge="1" parent="1">
          <mxGeometry width="50" height="50" relative="1" as="geometry">
            <mxPoint x="175" y="324.5" as="sourcePoint" />
            <mxPoint x="595" y="324.5" as="targetPoint" />
          </mxGeometry>
        </mxCell>
        <mxCell id="U7Al7Ej8v4SYEz0BeAcE-30" value="&lt;span style=&quot;font-size: 10px;&quot;&gt;[pageNumber&amp;lt;=1 || pageNumber&amp;gt;⌈images.size/5⌉ ]&amp;nbsp;&lt;/span&gt;&lt;div&gt;&lt;span style=&quot;font-size: 10px;&quot;&gt;displayError (request, response, &quot;wrong page number&quot;)&lt;/span&gt;&lt;/div&gt;" style="text;html=1;align=center;verticalAlign=middle;resizable=0;points=[];autosize=1;strokeColor=none;fillColor=none;" vertex="1" parent="1">
          <mxGeometry x="217" y="287" width="270" height="40" as="geometry" />
        </mxCell>
        <mxCell id="U7Al7Ej8v4SYEz0BeAcE-31" value="AlbumDAO" style="shape=umlLifeline;perimeter=lifelinePerimeter;whiteSpace=wrap;html=1;container=0;dropTarget=0;collapsible=0;recursiveResize=0;outlineConnect=0;portConstraint=eastwest;newEdgeStyle={&quot;edgeStyle&quot;:&quot;elbowEdgeStyle&quot;,&quot;elbow&quot;:&quot;vertical&quot;,&quot;curved&quot;:0,&quot;rounded&quot;:0};" vertex="1" parent="1">
          <mxGeometry x="316" y="59" width="100" height="131" as="geometry" />
        </mxCell>
        <mxCell id="U7Al7Ej8v4SYEz0BeAcE-32" value="" style="html=1;points=[];perimeter=orthogonalPerimeter;outlineConnect=0;targetShapes=umlLifeline;portConstraint=eastwest;newEdgeStyle={&quot;edgeStyle&quot;:&quot;elbowEdgeStyle&quot;,&quot;elbow&quot;:&quot;vertical&quot;,&quot;curved&quot;:0,&quot;rounded&quot;:0};" vertex="1" parent="U7Al7Ej8v4SYEz0BeAcE-31">
          <mxGeometry x="45" y="67" width="10" height="73" as="geometry" />
        </mxCell>
        <mxCell id="U7Al7Ej8v4SYEz0BeAcE-33" value="" style="endArrow=classic;html=1;rounded=0;exitX=0.025;exitY=1.03;exitDx=0;exitDy=0;exitPerimeter=0;" edge="1" parent="1">
          <mxGeometry width="50" height="50" relative="1" as="geometry">
            <mxPoint x="177" y="139.99999999999997" as="sourcePoint" />
            <mxPoint x="357" y="141" as="targetPoint" />
          </mxGeometry>
        </mxCell>
        <mxCell id="U7Al7Ej8v4SYEz0BeAcE-34" value="" style="endArrow=classic;html=1;rounded=0;exitX=0.025;exitY=1.03;exitDx=0;exitDy=0;exitPerimeter=0;" edge="1" parent="1" target="U7Al7Ej8v4SYEz0BeAcE-32">
          <mxGeometry width="50" height="50" relative="1" as="geometry">
            <mxPoint x="178" y="158.99999999999997" as="sourcePoint" />
            <mxPoint x="352" y="160" as="targetPoint" />
          </mxGeometry>
        </mxCell>
        <mxCell id="U7Al7Ej8v4SYEz0BeAcE-35" value="&lt;font style=&quot;font-size: 10px;&quot;&gt;new&amp;nbsp; AlbumDAO()&lt;/font&gt;" style="text;html=1;align=center;verticalAlign=middle;resizable=0;points=[];autosize=1;strokeColor=none;fillColor=none;" vertex="1" parent="1">
          <mxGeometry x="187" y="120" width="100" height="30" as="geometry" />
        </mxCell>
        <mxCell id="U7Al7Ej8v4SYEz0BeAcE-36" value="&lt;span style=&quot;font-size: 10px;&quot;&gt;findAlbumById(albumId)&lt;/span&gt;" style="text;html=1;align=center;verticalAlign=middle;resizable=0;points=[];autosize=1;strokeColor=none;fillColor=none;" vertex="1" parent="1">
          <mxGeometry x="202" y="136" width="130" height="30" as="geometry" />
        </mxCell>
        <mxCell id="U7Al7Ej8v4SYEz0BeAcE-37" value="album" style="html=1;verticalAlign=bottom;endArrow=open;dashed=1;endSize=8;edgeStyle=elbowEdgeStyle;elbow=vertical;curved=0;rounded=0;" edge="1" parent="1" source="U7Al7Ej8v4SYEz0BeAcE-32">
          <mxGeometry x="0.4591" relative="1" as="geometry">
            <mxPoint x="177" y="180" as="targetPoint" />
            <Array as="points">
              <mxPoint x="307" y="180" />
            </Array>
            <mxPoint x="300" y="176" as="sourcePoint" />
            <mxPoint as="offset" />
          </mxGeometry>
        </mxCell>
        <mxCell id="U7Al7Ej8v4SYEz0BeAcE-38" value="" style="endArrow=classic;html=1;rounded=0;" edge="1" parent="1">
          <mxGeometry width="50" height="50" relative="1" as="geometry">
            <mxPoint x="176" y="215" as="sourcePoint" />
            <mxPoint x="596" y="215" as="targetPoint" />
          </mxGeometry>
        </mxCell>
        <mxCell id="U7Al7Ej8v4SYEz0BeAcE-39" value="&lt;span style=&quot;font-size: 10px;&quot;&gt;[album===null] displayError(request, response, &quot;album not found&quot;&lt;/span&gt;" style="text;html=1;align=center;verticalAlign=middle;resizable=0;points=[];autosize=1;strokeColor=none;fillColor=none;" vertex="1" parent="1">
          <mxGeometry x="250" y="190.5" width="310" height="30" as="geometry" />
        </mxCell>
      </root>
    </mxGraphModel>
  </diagram>
</mxfile>
